<svg xmlns="http://www.w3.org/2000/svg" viewBox="0 0 330 330" xml:space="preserve"><path fill="#000" d="M165 0C74.019 0 0 74.019 0 164.999 0 255.98 74.019 330 165 330s165-74.02 165-165.001C330 74.019 255.981 0 165 0m0 300c-74.44 0-135-60.561-135-135.001C30 90.561 90.56 30 165 30s135 60.561 135 134.999C300 239.439 239.439 300 165 300"/><path fill="#000" d="m234.999 149.992-103.784.006 34.392-34.393c5.858-5.857 5.858-15.355 0-21.213-5.857-5.857-15.355-5.857-21.213 0l-60 60.001a15 15 0 0 0 0 21.213l60 59.999A14.95 14.95 0 0 0 155 239.998c3.839 0 7.678-1.465 10.606-4.393 5.858-5.857 5.858-15.355 0-21.213l-34.395-34.395 103.79-.006c8.284 0 14.999-6.717 14.999-15.001-.001-8.283-6.717-14.998-15.001-14.998"/></svg>