<svg xmlns="http://www.w3.org/2000/svg" viewBox="0 0 330 330" xml:space="preserve"><path fill="#000" d="M165 0C74.019 0 0 74.02 0 165.001 0 255.981 74.019 330 165 330s165-74.019 165-164.999C330 74.02 255.981 0 165 0m0 300c-74.44 0-135-60.561-135-134.999C30 90.562 90.56 30 165 30s135 60.562 135 135.001C300 239.439 239.439 300 165 300"/><path fill="#000" d="M185.606 94.395c-5.857-5.857-15.355-5.857-21.213 0s-5.858 15.355 0 21.213l34.395 34.395-103.79.006c-8.284 0-15 6.717-14.999 15.001S86.716 180.009 95 180.009l103.784-.006-34.392 34.393c-5.858 5.857-5.858 15.355 0 21.213a14.95 14.95 0 0 0 10.606 4.394 14.95 14.95 0 0 0 10.606-4.394l60-60.001a14.995 14.995 0 0 0 .002-21.214z"/></svg>